<?xml version="1.0" encoding="UTF-8" standalone="no"?>
<!-- Created with Inkscape (http://www.inkscape.org/) -->

<svg
   xmlns:dc="http://purl.org/dc/elements/1.1/"
   xmlns:cc="http://creativecommons.org/ns#"
   xmlns:rdf="http://www.w3.org/1999/02/22-rdf-syntax-ns#"
   xmlns:svg="http://www.w3.org/2000/svg"
   xmlns="http://www.w3.org/2000/svg"
   xmlns:sodipodi="http://sodipodi.sourceforge.net/DTD/sodipodi-0.dtd"
   xmlns:inkscape="http://www.inkscape.org/namespaces/inkscape"
   width="210mm"
   height="297mm"
   viewBox="0 0 210 297"
   version="1.1"
   id="svg8"
   inkscape:version="0.92.4 (5da689c313, 2019-01-14)"
   sodipodi:docname="ico_call.svg"
   inkscape:export-filename="C:\Users\nsp\Desktop\ico_call.png"
   inkscape:export-xdpi="16.484798"
   inkscape:export-ydpi="16.484798">
  <defs
     id="defs2" />
  <sodipodi:namedview
     id="base"
     pagecolor="#ffffff"
     bordercolor="#666666"
     borderopacity="1.0"
     inkscape:pageopacity="0.0"
     inkscape:pageshadow="2"
     inkscape:zoom="0.24748737"
     inkscape:cx="-172.42612"
     inkscape:cy="844.90425"
     inkscape:document-units="mm"
     inkscape:current-layer="layer1"
     showgrid="false"
     inkscape:window-width="1280"
     inkscape:window-height="737"
     inkscape:window-x="-8"
     inkscape:window-y="-8"
     inkscape:window-maximized="1" />
  <metadata
     id="metadata5">
    <rdf:RDF>
      <cc:Work
         rdf:about="">
        <dc:format>image/svg+xml</dc:format>
        <dc:type
           rdf:resource="http://purl.org/dc/dcmitype/StillImage" />
        <dc:title></dc:title>
      </cc:Work>
    </rdf:RDF>
  </metadata>
  <g
     inkscape:label="Layer 1"
     inkscape:groupmode="layer"
     id="layer1">
    <g
       id="g866"
       transform="matrix(0.7504329,0,0,0.7504329,14.22969,-2.4520984)"
       inkscape:export-xdpi="9.9325829"
       inkscape:export-ydpi="9.9325829">
      <circle
         r="218.09193"
         cy="208.26653"
         cx="117.59859"
         id="path862"
         style="fill:#3f67df;fill-opacity:0.99215686;stroke:none;stroke-width:10.51546383;stroke-miterlimit:4;stroke-dasharray:none;stroke-opacity:1" />
      <path
         inkscape:export-ydpi="16.484798"
         inkscape:export-xdpi="16.484798"
         sodipodi:nodetypes="ccccccccccccccccccccc"
         inkscape:connector-curvature="0"
         id="path817"
         d="m 215.83866,345.73311 c 2.04826,-1.21924 4.01797,-2.56581 5.8976,-4.03173 l -56.82778,-97.63869 c -2.2006,0.91513 -4.34162,1.96739 -6.41046,3.15057 -1.44555,0.85268 -2.85268,1.76884 -4.21736,2.74574 l 57.08097,98.07365 c 1.52547,-0.7002 3.01927,-1.46747 4.47703,-2.29954 z m -11.20842,4.92129 -55.96463,-96.15567 c -3.98776,3.67434 -7.43081,7.89897 -10.22497,12.54608 -40.290214,-22.43172 -59.824732,-55.16044 -57.472857,-98.7471 5.424118,-0.12563 10.802488,-1.02514 15.972333,-2.67121 L 40.975548,69.470887 C -53.536441,124.98028 118.91519,404.46689 204.63024,350.6544 Z M 108.14853,160.7052 c 2.04825,-1.21924 4.01797,-2.56579 5.8976,-4.03171 L 57.218392,59.034838 c -2.200572,0.915126 -4.341596,1.967396 -6.410438,3.150578 -1.445703,0.852398 -2.852653,1.768856 -4.217338,2.745735 L 103.6715,163.00478 c 1.52548,-0.70025 3.01927,-1.46751 4.47703,-2.29958 z"
         style="fill:#ffffff;fill-opacity:0.99215686;stroke:none;stroke-width:6.28301477;stroke-miterlimit:4;stroke-dasharray:none;stroke-opacity:0.4572864" />
    </g>
  </g>
</svg>
